# xmcd
#
# Track frame offsets:
# 150
# 19447
# 34937
# 56482
#
# Disc length: 970 seconds
#
#
# Revision: 3
# Processed by: cddbd v1.5.2PL0 Copyright (c) Steve Scherf et al.
# Submitted via: FreeRIP 2.945 
#
DISCID=3003c804
DTITLE=Shania Twain - Don't Be Stupid (You Know I Love You) [CD Single)
DYEAR=1999
DGENRE=Pop
TTITLE0=Don't Be Stupid (You Know I Love You) (Dance Mix Single)
TTITLE1=You've Got A Way (Nothing Hill Remix)
TTITLE2=Don't Be Stupid (You Know I Love You) (Dance Mix - Full Lenght)
TTITLE3=Don't Be Stupid (You Know I Love You) (LP Version)
EXTD=
EXTT0=
EXTT1=
EXTT2=
EXTT3=
PLAYORDER=
